<svg xmlns="http://www.w3.org/2000/svg" viewBox="0 0 1610.2 320"><defs><style>.cls-1{fill:#fa3d47;}</style></defs><title>logo</title><g id="Camada_2" data-name="Camada 2"><g id="Camada_1-2" data-name="Camada 1"><path class="cls-1" d="M368.65,175.91a219,219,0,0,0,51.72-5.74C436.13,166.34,444,161.64,444,156c0-2.9-3.48-4.36-10.4-4.36q-4.37,0-23.87,1.65a281.39,281.39,0,0,1-36.42.8Q383.94,107.92,384,95.11a8.11,8.11,0,0,0-.26-2.45Q387,92.38,398.15,91c7.46-.92,13.39-1.57,17.75-2s9.14-1,14.3-1.53,9.42-1,12.71-1.23,6.8-.61,10.63-1.07,6.92-.92,9.3-1.37,5.08-1.15,8.18-2,4.63-2.49,4.63-4.67c0-3.25-4.93-5.81-14.88-7.61s-23.56-2.76-40.93-2.76-30.57.84-39.56,2.45-14.42,4.4-16.26,8.19a10.5,10.5,0,0,0-1.91,6.58q-.53,21-16.22,84.31T330.2,236.5c0,3.25,1.88,7.5,5.7,12.7s6.93,7.77,9.3,7.77c1.07,0,2.18-1.57,3.29-4.63.54-1.64,1.11-3.33,1.76-5.05a66.34,66.34,0,0,0,2-7.12c.72-3,1.41-5.7,2.06-8s1.42-5.51,2.34-9.45,2.94-12.2,6.12-24.94,5-20,5.32-21.84Zm239.94,3.4Q595.73,203,577.87,219t-31.52,16.11c-5.82,0-10.9-3.14-15.3-9.42s-6.55-14.42-6.55-24.44q0-25.08,13.13-52.53t29.45-44.33q16.36-16.93,27.32-17c7.27,0,13.58,4.4,18.93,13.12s8.08,20.08,8.08,34.12S617.12,163.59,608.59,179.31ZM544.7,256.7q24.57,0,48.74-20.35A153.15,153.15,0,0,0,632,187.23q14.46-28.81,14.46-55a77.84,77.84,0,0,0-15.26-47.06Q615.91,64.28,593,64.27q-14.17,0-30.83,12.13a138.53,138.53,0,0,0-30.45,31.26Q518,126.77,508.82,152.42a150.11,150.11,0,0,0-9.14,50.49q0,18.32,13.5,36T544.7,256.7ZM731.24,67.14c-.8,1.19-1.23,3.33-1.23,6.43Q730,91,712.42,159.8t-17.6,75.33q0,6.54,4.9,13.65c3.29,4.71,6,7.08,8.18,7.08.73,0,1.84-1.53,3.29-4.63q1.09-2.46,2.07-5.2c.61-1.8,1.38-4.21,2.29-7.23s1.8-5.78,2.61-8.3,1.76-5.78,2.86-9.68,2-7.35,2.87-10.25,1.8-6.58,3-11.06,3.63-13.47,7.38-27a469.57,469.57,0,0,0,10.22-49q16.69,53,26.47,67.14c4.4,5.67,9.07,8.46,14.08,8.46s11.36-4.1,19.09-12.28,28.34-33.21,61.82-75.06Q855,141.54,845.62,181.11t-9.41,50.61c0,7.38,1.15,13.24,3.52,17.6s4.78,6.54,7.23,6.54,5-5.28,7.81-15.8c1.45-5.47,2.87-11.06,4.21-16.79s3.13-13.13,5.31-22.12,4.1-16.64,5.74-22.91,4-14.69,7.12-25.25,5.31-18.36,6.65-23.34,3-10.94,4.67-17.75,2.95-12.31,3.67-16.52a65.93,65.93,0,0,0,1.11-11.17q0-4.93-5.47-10.37c-3.63-3.64-7.11-5.47-10.37-5.47s-8.64,4.17-16.1,12.55-18.94,22.53-34.39,42.46-28.31,35.88-38.49,47.9q-12-25.65-21.27-50.65t-10.4-34.78c-.35-3.82-3.37-8.19-9-13.12s-9.61-7.35-11.86-7.35S732.08,66,731.24,67.14ZM946.05,249.59q5.33,6.54,8.6,6.54t7.92-16.07c1.46-5.85,2.79-11.21,4.1-16.11s3-12,5.16-21.15,3.94-16.26,5.2-21.16q19.63-80,19.67-89.67a29.38,29.38,0,0,0-6.43-18.13c-4.29-5.66-7.73-8.46-10.37-8.46s-4.36.58-5.2,1.76-1.23,3.33-1.23,6.43q-.29,16.88-16.52,87.72t-16.22,76.28C940.73,241.21,942.49,245.22,946.05,249.59ZM1187.44,75.75c0,1.61-.88,12.43-2.72,32.48q-6,65.19-23.75,112.17-11.71-25.65-55.67-139.75a32.15,32.15,0,0,0-7.76-11.06c-3.56-3.36-6.35-5-8.34-5-3.1,0-4.63,2.91-4.63,8.73Q1084,90.76,1066.28,161t-17.75,76.82c0,4.4,1.69,8.61,5,12.7s6.24,6.16,8.61,6.16c1.64,0,3.56-3.63,5.74-10.94s6.58-24.22,13.23-50.88,12.67-50.54,18.14-71.65q40.11,102.08,48.31,121.19a24.22,24.22,0,0,0,7,8.72c3,2.38,5.66,3.56,8,3.56,6.93,0,14.23-11.74,22-35.23a524.28,524.28,0,0,0,18.55-76.4q6.94-41.2,7-63.62c0-3.25-2-7-6-11.17S1196.43,64,1193.06,64,1187.82,67.91,1187.44,75.75Zm91.43,181c1.84,0,4-4.82,6.58-14.46,1.45-4.93,2.79-9.83,4.09-14.77s3-11.78,5.32-20.58,4.67-18,7.23-27.43q31.9-7.11,71.77-12.54-16.35,63.29-16.37,70.12t5,13.23q5,6.43,8.87,6.43c2,0,4.29-4.82,6.81-14.46,1.45-4.93,2.83-9.83,4.09-14.77s3-11.47,5-19.77,6.05-23.15,11.9-44.61c11.29-2.37,16.91-5.43,16.91-9.14s-4.17-6.24-12.55-7.54Q1415.91,100,1415.9,90.9c0-6.12-2.1-12-6.27-17.63s-7.84-8.46-10.94-8.46c-3.64,0-5.43,2.75-5.43,8.19q0,16.13-13.93,72.87a510.78,510.78,0,0,0-70.7,9.57Q1322,102.76,1322,92.24a31.55,31.55,0,0,0-6.16-19c-4.09-5.63-7.38-8.46-9.83-8.46s-4.09.61-4.89,1.8-1.23,3.29-1.23,6.39q0,17.2-18.29,88.71c-9.48,2.91-14.19,5.55-14.19,7.92a12.28,12.28,0,0,0,2.6,7.77,13.85,13.85,0,0,0,6.12,4.78q-12,46.94-12,53.48c0,4.4,1.91,9,5.74,13.81S1276.69,256.7,1278.87,256.7Zm331.33-94.45q0-7.06-12.28-7.08a131.63,131.63,0,0,0-13.35.8q-4.07-39.83-10.79-66.87t-15.15-27c-4.74,0-9.6,1.76-14.61,5.32a29.07,29.07,0,0,0-10.48,12.82c-2,5-6.73,16.52-14.19,34.54s-13.28,32.21-17.49,42.58c-1.79,5.28-4.17,11.17-7.07,17.75q-27,8.73-27,14A11.08,11.08,0,0,0,1472,198a14.61,14.61,0,0,0,9.67,3.55h1.92q-15.55,36-15.53,38.76c0,4,1.68,7.76,5,11.32s6.54,5.32,9.45,5.32,12.35-20.93,28.38-62.78c13.62-3.82,23.84-6.58,30.57-8.34s14.19-3.67,22.38-5.85q2.17,25.13,4.09,51.3c1.07,9.49,2.53,16.11,4.36,19.93s4.29,5.74,7.35,5.74q8.77,0,8.76-34.39,0-19.92-2.18-48.32C1602.21,169.71,1610.2,165.73,1610.2,162.25ZM1521,168q19.11-50.79,31.37-78.89,4.65,23.48,9.56,70.16Q1540.35,162.83,1521,168Z"/><path class="cls-1" d="M105,130.35A21.68,21.68,0,1,0,83.31,152,21.71,21.71,0,0,0,105,130.35Zm-21.68,6.27a6.28,6.28,0,1,1,6.28-6.28,6.28,6.28,0,0,1-6.28,6.28ZM157,84.48a35.88,35.88,0,1,0,35.87,35.87A35.91,35.91,0,0,0,157,84.48Zm0,56.35a20.47,20.47,0,1,1,20.48-20.47A20.49,20.49,0,0,1,157,140.83Zm-35.26,26.81a27.69,27.69,0,1,0,27.69,27.69,27.7,27.7,0,0,0-27.69-27.69Zm0,40A12.29,12.29,0,1,1,134,195.34,12.29,12.29,0,0,1,121.72,207.63Z"/><path class="cls-1" d="M218.71,28.42A138,138,0,0,0,21.8,58.62,137.72,137.72,0,0,0,.37,106.43L0,108l.28,1.53c1.17,6.71,6.54,13.61,11.28,19.68,1.67,2.13,3.23,4.09,4.27,5.74L134.18,320l35.2-53.75c1.17-1.66,3.33-4.75,2.09-8.85-1.3-4.32-5.17-5.84-8-7-7.63-3-4.49-13.77-3.87-15.82l.38-2.32c.1-1.83,1.4-17.94,14.05-17.94a29.86,29.86,0,0,1,10.61,2.35l19,7.38L194.25,206a17.83,17.83,0,0,1-.51-15.47,21.54,21.54,0,0,1,13.47-12,9.09,9.09,0,0,1,1.65-.09c1.51,0,3.11.07,4.76.14,1.82.1,3.64.18,5.2.18,2.61,0,8.06,0,11.42-5.11l37.28-56.74c6.1-9.22,0-24.33-11.75-45.42a140.13,140.13,0,0,0-37.06-43Zm-.12,134.94c-1.27,0-2.76-.06-4.21-.15-4.73-.22-8.76-.27-11.35.5a36.72,36.72,0,0,0-23.46,20.82,34,34,0,0,0-2.69,14.59c-24-2-31.72,20.76-32.13,31.6-2.63,8-3.71,23.91,8.65,31.82l-19.06,29.15L41.5,146.48a94.61,94.61,0,0,1,94.31-87.71c49.69,0,90.65,38.35,94.19,87.25l-11.41,17.34Zm36.08-54.91L242.51,127A109.93,109.93,0,0,0,29,127l-.24-.39q-2.4-3.57-5.1-6.93c-2.55-3.26-6.6-8.47-7.9-11.66a122.77,122.77,0,0,1,98.65-91,124.34,124.34,0,0,1,94.89,23.62A126.49,126.49,0,0,1,243,80.26c11.68,21,11.89,27,11.64,28.19Z"/></g></g></svg>