<svg xmlns="http://www.w3.org/2000/svg" version="1.1" xlink="http://www.w3.org/1999/xlink" xmlns:svgjs="http://svgjs.com/svgjs" width="100%" height="100%" viewBox="3.8719983100891113 0.5338864326477051 41.222984313964844 48.87111282348633"><g fill="#fa3d47"><path d="M19.906 20.441a3.315 3.315 0 0 0-3.311-3.312c-1.827 0-3.311 1.486-3.311 3.312s1.484 3.311 3.311 3.311a3.315 3.315 0 0 0 3.311-3.311zm-3.311.958a.96.96 0 0 1 0-1.919c.528 0 .96.432.96.96a.963.963 0 0 1-.96.959zm11.251-7.963a5.484 5.484 0 0 0-5.478 5.478 5.483 5.483 0 0 0 5.478 5.479 5.484 5.484 0 0 0 5.478-5.479 5.488 5.488 0 0 0-5.478-5.478zm0 8.606a3.13 3.13 0 0 1-3.127-3.127 3.132 3.132 0 0 1 3.127-3.126 3.134 3.134 0 0 1 3.128 3.126 3.134 3.134 0 0 1-3.128 3.127zm-5.384 4.094a4.231 4.231 0 0 0-4.228 4.229 4.232 4.232 0 0 0 4.228 4.227 4.233 4.233 0 0 0 4.228-4.227 4.235 4.235 0 0 0-4.228-4.229zm0 6.108a1.877 1.877 0 0 1 0-3.755 1.877 1.877 0 1 1 0 3.755z"></path><path d="M37.274 4.875c-4.559-3.498-10.63-5.017-16.31-4.06-5.512.918-10.527 4.08-13.763 8.672a21.034 21.034 0 0 0-3.273 7.301l-.056.232.042.234c.179 1.024 1 2.078 1.724 3.005.255.326.492.625.652.877l18.075 28.269 5.375-8.209c.179-.253.508-.725.319-1.352-.198-.659-.789-.891-1.222-1.063-1.165-.458-.685-2.102-.59-2.416l.057-.353c.016-.28.215-2.74 2.146-2.74.462 0 1.008.119 1.62.358l2.904 1.127-1.436-2.766a2.72 2.72 0 0 1-.077-2.362 3.287 3.287 0 0 1 2.057-1.838c.068-.013.155-.013.252-.013.23.006.474.01.727.022.278.014.556.027.794.027.398 0 1.231 0 1.744-.78l5.693-8.666c.932-1.408 0-3.715-1.794-6.937a21.4 21.4 0 0 0-5.66-6.569zm-.019 20.608c-.194 0-.421-.01-.642-.023-.723-.034-1.338-.041-1.734.076a5.605 5.605 0 0 0-3.582 3.179 5.188 5.188 0 0 0-.411 2.229c-3.672-.309-4.845 3.17-4.907 4.826-.402 1.225-.567 3.651 1.32 4.86l-2.911 4.451L10.21 22.905c.564-7.538 6.816-13.395 14.403-13.395 7.589 0 13.845 5.857 14.385 13.325l-1.743 2.648zm5.511-8.387l-1.857 2.827C39.105 12.559 32.47 7.156 24.61 7.156c-7.836 0-14.462 5.375-16.304 12.778l-.037-.06a15.207 15.207 0 0 0-.779-1.057c-.39-.498-1.008-1.295-1.206-1.782a18.71 18.71 0 0 1 2.838-6.192c2.875-4.085 7.332-6.894 12.227-7.71 5.046-.848 10.443.5 14.493 3.607 2.051 1.573 3.789 3.596 5.146 6.052 1.784 3.204 1.816 4.12 1.778 4.304z"></path></g></svg>