<?xml version="1.0" standalone="no"?>
<!DOCTYPE svg PUBLIC "-//W3C//DTD SVG 20010904//EN"
 "http://www.w3.org/TR/2001/REC-SVG-20010904/DTD/svg10.dtd">
<svg version="1.0" xmlns="http://www.w3.org/2000/svg"
 width="784.000000pt" height="784.000000pt" viewBox="0 0 784.000000 784.000000"
 preserveAspectRatio="xMidYMid meet">
<metadata>
Created by potrace 1.11, written by Peter Selinger 2001-2013
</metadata>
<g transform="translate(0.000000,784.000000) scale(0.100000,-0.100000)"
fill="#000000" stroke="none">
<path d="M3689 7836 c-2 -2 -42 -7 -89 -10 -47 -4 -94 -9 -105 -11 -11 -2 -40
-7 -65 -10 -53 -6 -79 -11 -180 -32 -41 -8 -82 -16 -90 -18 -259 -53 -643
-204 -908 -356 -47 -27 -87 -49 -89 -49 -3 0 -10 -6 -18 -12 -10 -11 -85 -60
-154 -103 -27 -17 -205 -152 -228 -174 -12 -12 -24 -21 -26 -21 -16 0 -275
-256 -360 -355 -33 -38 -63 -72 -67 -75 -4 -3 -49 -62 -101 -132 -252 -340
-427 -696 -545 -1113 -26 -89 -30 -107 -40 -153 -6 -30 18 -125 47 -189 26
-54 119 -206 131 -211 5 -2 8 -10 8 -17 0 -7 4 -15 9 -17 14 -5 127 -155 202
-268 38 -58 74 -112 79 -120 13 -19 192 -297 205 -318 6 -9 27 -42 47 -74 21
-31 38 -62 38 -67 0 -6 5 -11 10 -11 6 0 10 -7 10 -15 0 -8 4 -15 9 -15 5 0
11 -8 15 -17 3 -10 24 -45 46 -78 22 -33 43 -67 47 -75 3 -8 9 -17 13 -20 3
-3 70 -106 149 -230 78 -124 179 -281 223 -350 44 -69 86 -134 92 -144 6 -11
15 -25 19 -30 7 -11 183 -282 202 -313 6 -9 35 -55 65 -102 68 -108 78 -122
86 -141 4 -8 10 -17 14 -20 3 -3 70 -106 149 -230 79 -124 205 -321 280 -438
75 -117 141 -220 146 -230 6 -9 26 -42 46 -72 48 -73 166 -259 301 -473 42
-67 81 -126 85 -132 5 -5 47 -71 93 -145 47 -74 89 -139 93 -145 4 -5 71 -109
147 -230 77 -121 143 -225 148 -230 4 -6 13 -18 18 -28 8 -14 17 -6 57 54 26
39 47 75 47 80 0 5 4 9 9 9 5 0 11 6 13 13 3 11 152 241 269 414 27 40 49 77
49 82 0 5 3 11 8 13 4 1 32 41 62 88 30 47 58 90 63 95 4 6 35 53 69 105 33
52 77 120 97 150 20 30 41 62 46 71 6 9 31 49 57 88 71 107 85 140 83 202 -4
98 -47 150 -177 214 -61 30 -89 50 -108 79 -31 45 -30 41 -35 131 -2 43 4 104
16 160 10 50 21 106 23 125 12 81 18 107 33 150 40 110 98 181 183 222 48 24
151 30 235 14 40 -8 282 -93 340 -120 17 -8 55 -23 85 -34 30 -11 86 -32 124
-47 40 -15 65 -21 59 -13 -9 12 -187 353 -236 452 -49 100 -50 257 -1 362 60
131 177 240 304 282 8 3 107 6 220 6 182 1 209 4 245 21 65 32 99 64 149 140
107 163 156 238 156 242 0 2 5 9 11 16 11 13 134 200 379 576 80 123 151 229
158 236 6 8 12 18 12 24 0 6 5 11 10 11 6 0 10 4 10 9 0 8 53 93 78 126 39 53
99 156 113 198 17 52 20 199 5 272 -12 53 -49 170 -58 179 -4 6 -8 17 -8 26 0
9 -11 40 -25 68 -14 29 -25 54 -25 57 0 8 -122 252 -163 326 -19 35 -44 80
-54 100 -71 135 -280 438 -383 554 -154 174 -320 337 -434 427 -11 9 -50 40
-86 69 -36 28 -110 81 -165 117 -55 37 -101 70 -103 74 -2 4 -8 8 -14 8 -6 0
-37 16 -69 36 -32 19 -62 35 -66 36 -4 0 -25 11 -45 24 -44 28 -182 93 -310
148 -139 58 -407 142 -548 171 -8 2 -26 6 -40 9 -46 11 -86 18 -165 30 -23 4
-50 8 -60 10 -11 2 -49 7 -85 11 -36 4 -78 9 -95 12 -35 6 -521 14 -526 9z
m423 -380 c60 -4 118 -9 130 -12 13 -2 43 -6 68 -9 25 -2 45 -5 45 -5 0 -1 9
-3 20 -5 75 -11 98 -15 163 -29 89 -19 208 -51 242 -64 14 -5 28 -10 33 -10
34 -4 235 -78 337 -124 148 -67 361 -183 368 -200 2 -4 8 -8 13 -8 9 0 128
-76 139 -89 3 -3 39 -31 80 -62 41 -31 91 -70 110 -85 52 -43 310 -302 350
-352 19 -24 43 -54 54 -65 41 -48 218 -305 238 -347 7 -14 15 -27 18 -30 11
-9 130 -228 130 -238 0 -5 7 -15 15 -22 8 -7 15 -21 15 -31 0 -11 4 -19 10
-19 5 0 9 -3 8 -7 0 -5 20 -52 45 -106 57 -119 104 -251 111 -307 4 -37 -1
-51 -44 -119 -27 -42 -53 -80 -57 -86 -5 -5 -49 -72 -97 -148 -53 -82 -93
-134 -98 -129 -5 5 -12 24 -15 43 -5 33 -85 267 -118 344 -26 62 -117 249
-124 255 -3 3 -17 25 -30 50 -53 98 -185 285 -279 395 -91 105 -251 262 -332
325 -25 19 -47 38 -50 41 -13 16 -166 122 -255 178 -119 75 -322 174 -458 225
-98 37 -305 99 -362 109 -16 3 -43 9 -60 12 -140 27 -162 30 -280 41 -99 10
-419 10 -500 0 -33 -4 -84 -9 -113 -12 -105 -11 -435 -89 -512 -121 -8 -3 -18
-7 -22 -7 -3 -1 -10 -4 -14 -8 -4 -5 -14 -8 -23 -8 -9 -1 -34 -9 -56 -20 -22
-11 -43 -19 -48 -20 -28 -1 -425 -213 -447 -239 -3 -3 -12 -10 -21 -16 -38
-24 -78 -53 -144 -105 -38 -30 -79 -61 -89 -70 -30 -23 -268 -260 -301 -300
-162 -193 -267 -353 -381 -582 -24 -48 -44 -90 -44 -93 0 -4 -11 -30 -24 -58
-19 -43 -92 -247 -100 -282 -2 -5 -6 -27 -11 -47 -8 -42 -19 -48 -35 -19 -5
11 -16 26 -22 33 -7 8 -17 21 -23 30 -5 9 -57 78 -115 154 -58 77 -114 156
-124 178 -17 37 -17 42 -1 101 9 34 18 68 19 76 3 13 6 23 23 67 3 9 7 19 8
22 6 26 33 98 57 155 40 96 45 109 47 117 2 9 96 192 136 263 15 28 53 88 84
135 31 47 58 90 60 95 2 6 7 12 10 15 3 3 35 43 71 90 82 108 116 148 235 270
107 111 215 206 350 306 99 74 251 174 265 174 5 0 10 3 10 8 0 4 10 12 23 18
12 6 76 38 142 72 200 101 325 150 521 207 218 63 422 99 617 110 38 2 70 5
72 7 5 5 220 1 337 -6z m110 -1069 c27 -1 48 -4 48 -8 0 -3 19 -6 42 -8 23 -1
45 -4 48 -6 4 -2 42 -11 86 -20 206 -43 442 -134 662 -257 246 -137 544 -406
714 -645 76 -107 226 -364 234 -403 0 -3 9 -23 19 -45 28 -65 86 -227 92 -260
3 -16 10 -36 15 -42 6 -7 8 -13 5 -13 -3 0 3 -32 13 -70 10 -39 18 -74 19 -78
1 -13 14 -97 17 -117 14 -77 15 -162 2 -176 -8 -8 -32 -43 -53 -79 -22 -36
-45 -69 -52 -73 -7 -4 -13 -12 -13 -18 0 -10 -87 -145 -107 -167 -7 -7 -13
-17 -13 -21 0 -4 -9 -17 -20 -28 -15 -17 -26 -20 -47 -15 -33 9 -265 7 -306
-1 -130 -27 -270 -103 -400 -217 -30 -26 -122 -138 -144 -174 -83 -138 -128
-289 -132 -437 l-1 -46 -72 1 c-174 3 -333 -61 -455 -182 -90 -89 -101 -105
-153 -212 -41 -82 -45 -94 -63 -155 -27 -91 -32 -113 -41 -208 -3 -26 -7 -51
-10 -55 -3 -5 -8 -22 -11 -38 -37 -180 -20 -368 45 -495 17 -33 36 -67 43 -76
25 -32 120 -123 128 -123 5 0 9 -4 9 -10 0 -9 -107 -181 -159 -255 -27 -38
-235 -357 -270 -412 -14 -24 -28 -43 -31 -43 -4 0 -146 217 -175 267 -6 10
-31 51 -58 91 -26 40 -47 77 -47 81 0 5 -3 11 -7 13 -9 3 -53 64 -53 72 0 2
-21 38 -47 78 -27 41 -52 81 -58 90 -55 90 -221 344 -227 346 -5 2 -8 8 -8 13
0 6 -18 37 -40 69 -22 32 -40 63 -40 69 0 5 -4 11 -8 13 -7 2 -99 144 -145
223 -7 11 -14 22 -17 25 -3 3 -10 14 -17 25 -22 36 -112 178 -193 303 -44 68
-80 126 -80 128 0 3 -5 10 -10 17 -6 7 -34 48 -62 92 -66 104 -105 164 -160
250 -24 39 -73 115 -108 170 -35 55 -66 102 -69 105 -4 3 -12 16 -19 30 -12
25 -204 327 -219 345 -5 6 -20 28 -33 50 -13 22 -28 43 -33 46 -5 3 -9 10 -10
15 -1 9 -28 54 -135 219 -140 218 -193 306 -194 322 -1 20 10 113 17 153 3 14
7 41 10 60 9 52 35 168 51 225 8 28 14 53 14 57 0 4 9 28 20 53 11 25 19 48
19 50 -2 30 161 374 204 430 4 6 27 39 50 75 65 98 118 170 126 170 4 0 14 13
23 28 29 49 202 220 340 335 137 115 404 267 598 340 106 40 145 52 146 46 0
-2 7 1 15 7 14 12 141 44 274 70 39 8 64 11 155 20 41 3 76 8 78 9 3 3 352 -3
444 -8z"/>
<path d="M4300 5755 c-375 -80 -649 -367 -706 -740 -6 -36 -7 -224 -1 -245 2
-8 9 -42 16 -75 34 -155 118 -304 236 -420 95 -92 102 -98 152 -127 21 -12 41
-26 44 -31 3 -5 9 -8 12 -8 4 0 27 -8 51 -19 83 -35 149 -55 221 -65 11 -2 20
-4 20 -5 0 -1 44 -3 99 -5 362 -9 699 211 833 546 69 170 84 382 39 544 -52
190 -149 344 -292 462 -52 43 -204 137 -204 127 0 -4 -6 -2 -12 4 -14 11 -135
50 -183 58 -61 11 -272 11 -325 -1z m333 -393 c144 -51 263 -176 308 -324 23
-75 30 -174 16 -233 -5 -22 -10 -47 -12 -56 -13 -65 -74 -160 -145 -227 -46
-44 -169 -112 -208 -115 -12 -1 -22 -4 -22 -8 0 -3 -44 -6 -97 -5 -97 2 -223
28 -223 47 0 5 -7 9 -17 9 -37 0 -154 109 -200 187 -59 101 -81 227 -61 348
24 140 140 292 271 354 75 36 90 40 162 47 27 3 51 7 52 8 7 7 128 -16 176
-32z"/>
<path d="M2540 5163 c-124 -31 -235 -105 -309 -207 -63 -87 -95 -183 -100
-294 -8 -205 118 -409 309 -498 234 -109 513 -26 668 198 18 25 32 53 32 62 0
8 4 17 9 21 15 9 41 139 41 205 0 66 -14 136 -36 187 -8 17 -14 34 -14 38 0
13 -71 114 -103 146 -51 51 -145 108 -216 130 -81 26 -206 31 -281 12z m211
-393 c101 -72 71 -237 -49 -269 -65 -18 -120 2 -161 59 -51 70 -32 166 43 214
33 22 49 25 89 21 26 -2 61 -14 78 -25z"/>
<path d="M3557 3734 c-1 -1 -27 -5 -57 -9 -30 -4 -63 -11 -72 -16 -10 -5 -18
-8 -18 -5 0 6 -50 -14 -127 -51 -29 -13 -53 -29 -53 -34 0 -5 -6 -9 -13 -9
-22 0 -141 -120 -180 -182 -31 -47 -85 -156 -87 -173 0 -3 0 -6 -1 -7 -26 -85
-31 -225 -12 -327 44 -230 220 -430 448 -508 158 -54 356 -44 492 25 113 57
124 64 187 125 151 148 217 309 211 514 -3 89 -28 208 -52 245 -4 7 -8 15 -8
18 -2 11 -40 77 -64 110 -91 125 -244 230 -381 261 -40 10 -208 27 -213 23z
m168 -408 c63 -29 118 -83 147 -144 18 -37 23 -64 23 -132 0 -76 -3 -90 -29
-135 -130 -221 -427 -213 -538 15 -31 64 -31 186 1 251 40 83 123 150 202 164
18 3 35 7 37 9 10 10 114 -9 157 -28z"/>
</g>
</svg>
